<svg xmlns="http://www.w3.org/2000/svg" width="256" height="256" viewBox="0 0 256 256"><title>dinosaurs</title><path d="M102,209.1a4.4,4.4,0,0,0-.6,4h-0.9l-0.4-.3-0.8-.6-0.8-.6-0.4-.3H97.2l-1.3-.2-1.3-.2-0.8-.2a3,3,0,0,1-1.4-1.2,10.1,10.1,0,0,1-.7-1.6,13.8,13.8,0,0,0-.7-1.7,3.6,3.6,0,0,0-1.4-1.4,8.8,8.8,0,0,1-3.8,3.3,12.6,12.6,0,0,1-5.1,1,12.4,12.4,0,0,1,.6-4.1q0.6-1.9,1.4-3.7l1.6-3.6a14.5,14.5,0,0,0,1-3.9,4.4,4.4,0,0,1,.1-0.7l0.3-1.1,0.3-1.1,0.2-.6q1-2.2,2.3-4.5l2.5-4.6q1.2-2.3,2.2-4.7a29.8,29.8,0,0,0,1.6-4.7,5.8,5.8,0,0,0,.2-2.3l-0.3-1.9a6.4,6.4,0,0,1,0-1.7,3.5,3.5,0,0,1,.9-1.8l4.4-5.2q2.1-2.5,4.1-5.2a65.4,65.4,0,0,0,3.7-5.5,48.1,48.1,0,0,0,3.1-6.2,8.3,8.3,0,0,0-1.3-1.8l-1-.7-0.8-.2a1.6,1.6,0,0,1-.8-0.5,5,5,0,0,1-.9-1.4,24.8,24.8,0,0,1-1.1-3,11.5,11.5,0,0,0-2.4-4.5,17.5,17.5,0,0,0-4-3.5,20.5,20.5,0,0,0-5-2.3,17.5,17.5,0,0,0-5.2-.8H86.2l-3,.3-3,.3H78.6a25.4,25.4,0,0,1-9.3-1.7,27.7,27.7,0,0,1-7.9-4.7,31.1,31.1,0,0,1-9.9-15.6q-1.1-4.4-2-8.7t-1.9-8.2A46.3,46.3,0,0,0,44.9,78,21.4,21.4,0,0,0,40.7,72a21.9,21.9,0,0,0-6.6-4.4,32.6,32.6,0,0,0-9.7-2.5H22.2l-3.4-.2-4-.2-4-.2H5V63.8A1.3,1.3,0,0,1,6,62.7,11.6,11.6,0,0,1,8.6,62l3.3-.3h4.8a83.3,83.3,0,0,1,11.4.7,37.2,37.2,0,0,1,8.7,2.2,25,25,0,0,1,6.6,3.9A29.2,29.2,0,0,1,48.6,74a53.5,53.5,0,0,1,4.4,7.6q2.1,4.3,4.3,9.7a12.8,12.8,0,0,0,3,4.5,12.2,12.2,0,0,0,4.1,2.6,18.7,18.7,0,0,0,4.9,1.1l5.4,0.3h6.3l3.9-.2,6-.4,7-.5,7-.5,6-.5,3.9-.5a36.1,36.1,0,0,1,4.9-1.5l4.9-1.1,4.9-1.1a42,42,0,0,0,4.8-1.4,22.1,22.1,0,0,0,5.4-2.7l5.1-3.4a37.5,37.5,0,0,1,5.2-2.9,14,14,0,0,1,5.9-1.2,14.8,14.8,0,0,1,5.3,1l5,2.1,4.9,2.1a14.1,14.1,0,0,0,5.1.9,3.9,3.9,0,0,0,3.3-1.8,17,17,0,0,0,2.2-4.8,66.3,66.3,0,0,0,1.7-6.8q0.7-3.8,1.7-7.8a73.7,73.7,0,0,1,2.3-7.8,28.2,28.2,0,0,1,3.4-6.8,16.7,16.7,0,0,1,5.2-4.8,14.5,14.5,0,0,1,7.5-1.8,10.4,10.4,0,0,1,3.1.4,10,10,0,0,0,3,.4,2.2,2.2,0,0,1,.3-1.2,1.5,1.5,0,0,1,1.2-.4h0.9l5.1,0.9h0.9l0.4-.3,0.8-.6,0.8-.6,0.4-.3,2.7-.7,2.9-.6,2.9-.4h2.6a23.2,23.2,0,0,1,4,.4,29.2,29.2,0,0,1,4.3,1.1,23.5,23.5,0,0,1,4.2,1.9,17.4,17.4,0,0,1,3.5,2.7,12.3,12.3,0,0,1,2.5,3.4,9.3,9.3,0,0,1,.9,4.1,6.9,6.9,0,0,1-.6,3,7.7,7.7,0,0,1-1.4,2.1l-1.9,1.7-2,1.7h-0.9l-0.5-.3-0.4-.5a8.6,8.6,0,0,1-2.4,2.5,5.4,5.4,0,0,1-3.1,1h-0.4l-0.5-.4-0.4-.5v0.9l-1.7-.9a2,2,0,0,1-.3.9l-0.6.8-0.4.2-0.5-.2-0.4-.4-0.4-.4h-0.6l-1.1.3-1.1.3h-1.1l-0.8-.2-0.6-.3-0.7-.3-0.9-.2-1.3.2-1.3.7q0,0.4-.1,1.1t-0.1,1a3.2,3.2,0,0,0,.3,1.5l0.6,0.9,0.6,0.8a1.9,1.9,0,0,1,.3,1.1v0.4l-0.5.8a2.4,2.4,0,0,0-.4.8q0,1,.2,2.5t0.5,3.1q0.3,1.6.8,3.3a17.6,17.6,0,0,0,1.1,3,9.6,9.6,0,0,0,1.5,2.3,3.4,3.4,0,0,0,1.9,1.1h0.5l0.8,0.2,0.8,0.3,0.5,0.3,1.4,0.9,1.9,1.5,2.1,1.9,1.9,2.1a14.1,14.1,0,0,1,1.4,2,3.7,3.7,0,0,1,.6,1.8,3.8,3.8,0,0,1-.6,2.1,6,6,0,0,1-1.6,1.6,7,7,0,0,1-2.1,1,7.8,7.8,0,0,1-2.2.3,10.2,10.2,0,0,1-4.8-1.1,27.6,27.6,0,0,1-4.4-2.8l-4.4-3.7a38.8,38.8,0,0,0-4.9-3.7,29.4,29.4,0,0,0-5.7-2.8,19.4,19.4,0,0,0-6.8-1.1,3.9,3.9,0,0,0-2.9,1,6.5,6.5,0,0,0-1.5,2.6,21.3,21.3,0,0,0-.7,3.3,19.6,19.6,0,0,1-.7,3.2,22.4,22.4,0,0,1-3.6,7.5,44.9,44.9,0,0,1-5.7,6.1,7.4,7.4,0,0,1,.8,2.4,17,17,0,0,1,.3,3q0,1.5-.1,2.8t-0.1,1.9a1.9,1.9,0,0,0,1.4,1.3,9.9,9.9,0,0,0,2.6.5h5.1l2.6-.3,2.5-.6,2.5-.6,2.7-.3,2.8,0.2a3.8,3.8,0,0,1,2.4,1.6,13.1,13.1,0,0,0-3.5.4l-2.4.9-2.2,1.1a11,11,0,0,1-2.9.9,3.9,3.9,0,0,0,1.7,1.5l2.6,1.1,3,1,2.8,1.2a7.2,7.2,0,0,1,2.1,1.6,3.3,3.3,0,0,1,.8,2.2,27.6,27.6,0,0,1-8-1.2l-7.9-2.7-7.9-2.7a27.9,27.9,0,0,0-8.1-1.2,10.1,10.1,0,0,0-3.1.6l-3.5,1.4a27,27,0,0,0-3.3,1.9,13.3,13.3,0,0,0-2.4,2,10.5,10.5,0,0,0,2.2,1.9l2.9,1.8,3.2,1.8,3.1,1.9a17.4,17.4,0,0,1,2.4,1.9,4.8,4.8,0,0,1,1.3,2.1h-6.7a7.4,7.4,0,0,0,.7,1.6l1.3,2.3,1.6,2.6,1.6,2.6,1.2,2.2a3.9,3.9,0,0,1,.5,1.4v0.4a11.8,11.8,0,0,1-3.8-2.4,43.7,43.7,0,0,1-3.9-3.9l-3.8-4.5-3.5-4.3a30.2,30.2,0,0,0-3.1-3.2,4.2,4.2,0,0,0-2.6-1.3,2.6,2.6,0,0,0-.8.8l-1.6,1.9-2,2a5,5,0,0,1-2,1.2h-11l-2.5.5a7.3,7.3,0,0,0-2.2,1,5.3,5.3,0,0,0-1.5,1.7,4.6,4.6,0,0,0-.6,2.4v0.5a10.4,10.4,0,0,0,2.1,3.3l2.8,3.1a24.6,24.6,0,0,1,2.5,3.1,6.2,6.2,0,0,1,1.1,3.5,16.3,16.3,0,0,1-1.5,6.6,24.1,24.1,0,0,1-3.9,6.2,21.4,21.4,0,0,1-5.6,4.6,12.9,12.9,0,0,1-6.5,1.8h-1.2a1.1,1.1,0,0,1-.9-0.8,9.3,9.3,0,0,0,1.5-1.5,1.4,1.4,0,0,0,.3-0.9,3.2,3.2,0,0,0-.3-1,4.9,4.9,0,0,1-.2-1.7h-2.2a9.2,9.2,0,0,1,.7-3.4l1.5-3.4q0.8-1.7,1.5-3.5a9.7,9.7,0,0,0,.7-3.5v-1.1l-0.2-1-0.3-1a2.1,2.1,0,0,0-.3-0.7l-0.9,1.3-1.7,2.4-1.9,2.3a2.5,2.5,0,0,1-1.6,1,8.4,8.4,0,0,1,.7-3.3l1.5-3.1,1.5-3a7.4,7.4,0,0,0,.7-3.1v-0.4a6.8,6.8,0,0,0-.4-1.2l-0.8-1.8-0.8-1.8-0.5-1.1a17.8,17.8,0,0,1-3.8,3.5,20.7,20.7,0,0,1-3.9,2l-4.3,1.4-5,1.6a9.1,9.1,0,0,0-4.1,3.4,32.6,32.6,0,0,0-3.6,6.3,67.2,67.2,0,0,0-2.9,7.9q-1.3,4.2-2.1,8.2t-1.3,7.1a36.8,36.8,0,0,0-.5,4.7v0.6c0,0.3,0,.6,0,0.9s0,0.6,0,.9v0.6l1,0.3,1.5,0.4,1.5,0.5,1.1,0.6,1.2,1.1,1.4,1.3,1.1,1.2a1.7,1.7,0,0,1,.5.7v1.8H107l-0.5-.3-0.5-.3h-0.3A6.3,6.3,0,0,0,102,209.1Z"/></svg>