<svg xmlns="http://www.w3.org/2000/svg" width="256" height="256" viewBox="0 0 256 256"><title>mammals</title><path d="M43,207.2a7,7,0,0,0,.7-3.1,6,6,0,0,0-.3-1.8l-0.7-1.7L42,198.9a8.2,8.2,0,0,1-.6-1.7l-0.3.4v0.5l-1,2.7a2.4,2.4,0,0,1-1.2,1l-2.1.7-2.2.4H24.9a26.6,26.6,0,0,1-4.5-.7,11.8,11.8,0,0,1-3.9-1.6,3.5,3.5,0,0,1-1.7-3.1,3.4,3.4,0,0,1,.3-1.5l0.7-1.2,0.8-1.2a4,4,0,0,0,.5-1.4,38,38,0,0,0,.7-5.6q0.2-2.9.2-5.7a6.2,6.2,0,0,0-.2-1.7,6.4,6.4,0,0,1-.2-1.8V177q1.3-3.4,2.7-6.2t2.8-6l0.4-1.2a6.2,6.2,0,0,0,.2-1.1v-1.3q0-.7.2-1.7t0.6-2.9l0.6-2.7q0.3-1.3.5-2.7a20.2,20.2,0,0,0,.2-3v-0.8q0-.6,0-1.2c0-.4,0-0.8,0-1.2v-0.8a7.2,7.2,0,0,1-2.8-3.7,29.2,29.2,0,0,1-1.5-5.7,55.9,55.9,0,0,1-.7-6.1q-0.2-3.1-.4-5.1a5.2,5.2,0,0,0-.1-0.7v-0.9l-0.2-1H18.6a16.7,16.7,0,0,1-.4,3.9q-0.4,1.7-1,3.4l-1.1,3.4a21.2,21.2,0,0,0-.8,3.7,1,1,0,0,1-.3.7l-0.6.3-0.6.3a0.7,0.7,0,0,0-.3.5v2.2l-0.5.7-0.5.6v0.4a1.9,1.9,0,0,0,.5,1.3l1,1,1,1a2.1,2.1,0,0,1,0,2.6,1.5,1.5,0,0,1-1.2.5,4,4,0,0,1-1.7-.8l-2.5-1.8-2.3-1.8-1-1v-5.4a4.2,4.2,0,0,0,1.3-2,16.7,16.7,0,0,0,.6-2.7q0.2-1.4.2-2.8a14.3,14.3,0,0,1,.2-2.4,23.5,23.5,0,0,1,1.2-4.5q0.9-2.3,1.9-4.6l2.2-4.4Q15,111,15.7,109l0.2-.6,0.3-1.1,0.3-1.1,0.2-.7a32.8,32.8,0,0,1,1.9-5.1,32.1,32.1,0,0,1,2.9-5,27.8,27.8,0,0,1,3.7-4.3,20,20,0,0,1,4.5-3.2l18-9,0.7-.2,0.7-.3,3-1.4,2.3-1.1,2.4-1,3.2-.9,2-.5,3.2-.7,3.7-.8,3.7-.7,3.2-.6,2.1-.4a7.1,7.1,0,0,0,2.9-.2l2.8-1,2.6-1.4,2.5-1.4,0.5-.9,2.6-3,2.2-2.5,1.9-2.1a14.4,14.4,0,0,1,7.2-4.3,34.6,34.6,0,0,1,8.5-1.1l2.2,0.2,2.8,0.4,2.8,0.5,2,0.4a2,2,0,0,0,1.1.8h3.8a4,4,0,0,0,2.3-.8A6.9,6.9,0,0,1,129,52q0.3-1.2.8-2.5l1-2.5a12.6,12.6,0,0,1,.9-1.8l0.5-.5,1.3-.9,3.6-3.5,2.3-.5a7,7,0,0,0,2.3-.9h7.6q0.2,0.6,1.9.9l3.7,0.7,4.1,0.6,2.9,0.5a11.8,11.8,0,0,1,3,1.4,18,18,0,0,1,3.1,2.4,14.6,14.6,0,0,1,2.4,3,5.9,5.9,0,0,1,1,3.1,3,3,0,0,1-.5,1.7,3.2,3.2,0,0,0-.5,1.8,3.7,3.7,0,0,0,.8,2.5,12.4,12.4,0,0,0,1.9,1.9l2.2,1.8a4.5,4.5,0,0,1,1.4,2.2,2.3,2.3,0,0,1,.1.6c0,0.3.1,0.6,0.1,1s0.1,0.7.1,1a2.3,2.3,0,0,0,.1.6,7.3,7.3,0,0,0,.9,1.7l1.7,2.6,2,3.1,1.9,3a19.3,19.3,0,0,1,1.3,2.5,2.5,2.5,0,0,1,.3,1.5l0.4,0.8,0.7,1.4,0.7,1.4,0.5,0.9a16.1,16.1,0,0,1,1.3,4.7,26.5,26.5,0,0,0,1,4.7v0.3a5,5,0,0,1-.2,1.5,5.5,5.5,0,0,0-.2,1.7,17.7,17.7,0,0,0,.2,2.4l0.3,2.3a2.3,2.3,0,0,0,.8,1.4l1,0.9a93.6,93.6,0,0,0,6.9,7.6,44.6,44.6,0,0,0,8.3,6.3l1.3,0.7,1.2,0.2h0.7a47.4,47.4,0,0,0,4.8-5.1,39.8,39.8,0,0,0,4-5.9,34.6,34.6,0,0,0,2.8-6.6,23.5,23.5,0,0,0,1-6.9,12.4,12.4,0,0,0-.8-4.7,22,22,0,0,0-2.4-4.2,1.8,1.8,0,0,1-.1-0.4,1.4,1.4,0,0,1,1.4-1.4,5,5,0,0,1,3.7,1.4,10,10,0,0,1,2.2,3.5,17.8,17.8,0,0,1,1.1,4.3,32.2,32.2,0,0,1,.3,3.9,21.4,21.4,0,0,1-.6,5,30.4,30.4,0,0,1-1.7,5l-1.6,3.2-2,4-1.8,3.5-0.9,1.7-1.4,1.9v0.2l0.3,0.2a5.7,5.7,0,0,0,2.3.6h2.4a26,26,0,0,0,9.5-1.7,20.3,20.3,0,0,0,7.9-5.6,43.1,43.1,0,0,0,3-6.3,19.2,19.2,0,0,0,1.1-6.8v-0.6a7.2,7.2,0,0,0,0-.7,4.4,4.4,0,0,1,0-.5v-0.3q-0.1-.5-0.4-1.7l-0.7-2.6L243,93.7a16.7,16.7,0,0,0-.6-1.7,12.6,12.6,0,0,0-2.3-2.8l-3.5-3.3L233.5,83a4.1,4.1,0,0,1-1.4-1.7,1.7,1.7,0,0,1,1.9-1.9h0.4a24.2,24.2,0,0,1,6.7,4.1,23.8,23.8,0,0,1,4.8,5.8,26.9,26.9,0,0,1,2.9,7,30.6,30.6,0,0,1,1,7.7,29.3,29.3,0,0,1-.9,7.2,30,30,0,0,1-2.8,7.1,26.5,26.5,0,0,1-4.5,6.1,18.2,18.2,0,0,1-6.2,4.1l-2.4.6-2.7.5-2.6.6a6.2,6.2,0,0,0-2.2,1h-4.1a24.2,24.2,0,0,1-5.8-.7,23.2,23.2,0,0,0-5.5-.7,3.9,3.9,0,0,0-1.9.6l-1.8,1.3-1.7,1.5-1.6,1.2-1.8.7-2.6,1.1-2.4,1.2a1.8,1.8,0,0,0-1,1,5.3,5.3,0,0,0,1.5,3.2,20.7,20.7,0,0,0,3.6,3.4,28.6,28.6,0,0,0,4.2,2.6,8.1,8.1,0,0,0,3.4,1.1,4.1,4.1,0,0,0,2.6-.8l1.9-1.7,1.9-1.7a3.8,3.8,0,0,1,2.5-.8,2.5,2.5,0,0,1,1.9,1.2,11.6,11.6,0,0,1,1.5,2.7,19.4,19.4,0,0,1,1,3.2,13.7,13.7,0,0,1,.3,2.6,2.8,2.8,0,0,1-.7,2.2,3.6,3.6,0,0,1-1.8.9l-2.2.2-2,.2-0.5.2-0.7.4-0.7.5-0.4.3-2.2,1-2.6.9-2.6.6-2.3.2a13.5,13.5,0,0,1-6-1.6,42.2,42.2,0,0,1-6.5-4,57.7,57.7,0,0,1-6-5.1,40,40,0,0,1-4.4-5,11.4,11.4,0,0,1-1.3-2.3l-1-2.5-1-2.5a14.1,14.1,0,0,0-1.2-2.3l-0.5-.4-3-2.6a25.7,25.7,0,0,1-2.5-2.6,27.3,27.3,0,0,1-2.1-2.9,29.9,29.9,0,0,1-1.9-3.6l-0.6-1.3-0.8-1.9-0.8-1.9a6.9,6.9,0,0,1-.5-1.2,15.3,15.3,0,0,1-.7-1.9l-0.7-1.9a9.8,9.8,0,0,0-.9-1.8,5.9,5.9,0,0,0-1.4-1.5h-0.1a1.2,1.2,0,0,0-1,.9,10.7,10.7,0,0,0-.6,2.3q-0.2,1.4-.4,3.2t-0.3,3.3q-0.2,1.6-.4,2.9a4.6,4.6,0,0,1-.7,1.8l-1.8,1.8-0.4.9-0.5.5h-1.2c-0.1-.2-0.2-0.1-0.3.3l-0.3,1.1v0.9a3.5,3.5,0,0,1-.5,1.1,3.4,3.4,0,0,0-.5,1.1l0.2,0.6,0.2,0.7c0,0.5.1,0.8,0.1,0.9a4,4,0,0,1-.2,1.4,3.8,3.8,0,0,1-.6,1l-0.7.9-0.8,1.2v1.3a2,2,0,0,1-1.2,1.5,5.7,5.7,0,0,1-1.8.3h-1.9a3,3,0,0,0-1.8.5,1.9,1.9,0,0,1,.3.7,2.8,2.8,0,0,1,.2.7,1.1,1.1,0,0,1-.8,1.2,3.1,3.1,0,0,1-1.5.1l-2.2,2.7h0a4.6,4.6,0,0,0,.8,2.4,8.5,8.5,0,0,1,1,2,8.3,8.3,0,0,1,.3,2.5,19.8,19.8,0,0,0,.1,2.4,5.5,5.5,0,0,0,.5,1.6l0.9,1.4,1,1.4a6.4,6.4,0,0,1,.8,1.5q0.9,2.6,1.6,5.3a23.9,23.9,0,0,0,2,5.1l1.4,3,1.4,3.2a32.2,32.2,0,0,1,1.1,3.3,11.7,11.7,0,0,1,.5,3.3,3.5,3.5,0,0,1-.2,1.4l-0.6,1.2-0.6,1.1a4.9,4.9,0,0,0-.4,1.3q-0.2,1.2-.3,3.1t-0.1,3.1a5.6,5.6,0,0,0,.1.6l1.3,2.6a15.3,15.3,0,0,1,.2,1.7,3.7,3.7,0,0,0,.7,1.9l1.6,1.6,1.3,1.4a5.9,5.9,0,0,1,.9,1.6,6.5,6.5,0,0,1,.3,2.2c0,0.1,0,.4,0,0.8s0,0.7,0,.9a6.9,6.9,0,0,1-2.6,2.2,14.5,14.5,0,0,1-3.3,1.1,20.9,20.9,0,0,1-3.6.5h-7l-0.9-.9-1.1-.4-2.5-.8-2.3-.7a9.4,9.4,0,0,1-3-1.5,3.4,3.4,0,0,1-1.2-2.9,3.7,3.7,0,0,1,.2-1.4l0.6-1.1,0.6-1.1a3.3,3.3,0,0,0,.2-1.3,11.4,11.4,0,0,0-.3-2.5q-0.3-1.2-.7-2.4l-0.8-2.3a23.9,23.9,0,0,1-.7-2.4l-0.2-1.6v-1.3a10.7,10.7,0,0,1-.1-1.1,7.4,7.4,0,0,0-.8-2.6,18.3,18.3,0,0,0-1.5-2.5l-1.8-2.3-1.7-2.2-0.7-1.2-0.6-1.3-0.7-1.3a4.7,4.7,0,0,0-1-1.1,18.2,18.2,0,0,1-.2,3.9,20.6,20.6,0,0,0-.3,3.7,5.9,5.9,0,0,0,1.1,3.7,26.4,26.4,0,0,0,2.5,2.8,28.7,28.7,0,0,1,2.5,2.8,5.4,5.4,0,0,1,1.1,3.5,4.3,4.3,0,0,1-1.2,3.2,8.7,8.7,0,0,1-3.2,1.9,16.6,16.6,0,0,1-4.1.9l-4.1.2h-6.2a12.3,12.3,0,0,1-3.5-.8,7.1,7.1,0,0,1-2.7-1.8,4.8,4.8,0,0,1-1.1-3.4,6.6,6.6,0,0,1,.3-1.9,6.6,6.6,0,0,0,.3-1.9,4.5,4.5,0,0,0-.4-2,9.2,9.2,0,0,0-1-1.6l-1.2-1.5a7.7,7.7,0,0,1-1-1.6,2.7,2.7,0,0,1-.4-1,5.2,5.2,0,0,1-.1-0.8c0-.3,0-0.6,0-0.9a8.6,8.6,0,0,0,0-1.3,5.1,5.1,0,0,0-.4-1.6l-0.6-1.4-0.6-1.4a5.4,5.4,0,0,1-.2-1.7,21.7,21.7,0,0,1,.5-4.7,21.1,21.1,0,0,0,.5-4.5,7.3,7.3,0,0,0-.4-2.3,12.4,12.4,0,0,0-1-2.2,1.6,1.6,0,0,0-.8,1,12.2,12.2,0,0,0-.3,1.4,3.8,3.8,0,0,1-.4,1.2,1.2,1.2,0,0,1-1.2.5l-1-.2-1-.2a2.7,2.7,0,0,1-.5,1.5,1.6,1.6,0,0,1-1.4.7,1.5,1.5,0,0,1-.9-0.3,1.6,1.6,0,0,0-.9-0.3,1.4,1.4,0,0,0-1.1.7,1.5,1.5,0,0,1-1.3.7l-1.4-.3-1.3-.7-0.6-.4-0.7.4-0.6.5H76.5l-0.5-.2-0.9-.5-0.9-.5-0.5-.2H73.3l-0.6.2-0.4.3-0.4.3-0.6.2-1.4-.2-2-.6-1.9-.8a1.6,1.6,0,0,1-.9-0.7,17.5,17.5,0,0,0-.7,2.2q-0.3,1.3-.6,2.8t-0.4,2.8-0.1,2.4a42.8,42.8,0,0,0,.7,7.6,42.9,42.9,0,0,1,.7,7.6,9.2,9.2,0,0,1-.3,2.4l-0.7,2.3-0.7,2a5.6,5.6,0,0,0-.3,1.8,4.1,4.1,0,0,0,1.1,2.7l2.5,2.6a30.9,30.9,0,0,1,2.5,2.7,4.9,4.9,0,0,1,1.1,3.2,2.2,2.2,0,0,1-.8,1.7,8.6,8.6,0,0,1-1.7,1.2l-1.9,1a4.1,4.1,0,0,0-1.5,1.2H46.8a6.2,6.2,0,0,0-1.4-1.4l-1.5-1.1a6.4,6.4,0,0,1-1.1-1.4,3.7,3.7,0,0,1-.5-2A6.8,6.8,0,0,1,43,207.2Zm-4.2-13.8,1.7,1.7v-0.5a6.5,6.5,0,0,0-.2-1.2q-0.2-.9-0.6-2l-0.8-1.9a3,3,0,0,0-.7-1.1v3.2A2.7,2.7,0,0,0,38.8,193.4Zm1.9,2.3c0,0.2.1,0.3,0.2,0.2l0.2-.2v-0.2A0.2,0.2,0,0,0,40.7,195.6Z"/></svg>