<svg xmlns="http://www.w3.org/2000/svg" width="256" height="256" viewBox="0 0 256 256"><title>plesiosaurs</title><path d="M121.5,225.7a1.5,1.5,0,0,1-.4,1.1,2.6,2.6,0,0,1-.9.7l-1.1.3h-1.1a27.3,27.3,0,0,1-7-.9,40.2,40.2,0,0,1-6.6-2.4,55.4,55.4,0,0,1-6.3-3.4l-6.1-3.9-5.9-4q-2.9-2-6-3.6a49.1,49.1,0,0,0-5.5-2.5,56.9,56.9,0,0,1-5.4-2.4,28.8,28.8,0,0,1-4.9-3.1,15.8,15.8,0,0,1-3.9-4.6,11.8,11.8,0,0,1-1.2-3,33.1,33.1,0,0,1-.7-3.4q-0.3-1.8-.5-3.5t-0.5-3.3a15,15,0,0,0-.7-2.6,3.5,3.5,0,0,0-1.2-1.7l-1.5-.9L51.3,177l-2.7-1.5-1.6-.9-2.6-1.8-3.7-2.6-3.5-2.5-2.1-1.6a53.4,53.4,0,0,1-7.9-7.7,75,75,0,0,1-6.8-9.4,89.9,89.9,0,0,1-5.5-10.6,100.3,100.3,0,0,1-4.2-11.3,93.1,93.1,0,0,1-2.7-11.3,72.7,72.7,0,0,1-1.1-10.7v-2.1q0-1.9,0-4.3t0-5v-7q0-2.3,0-4.7t0-4.6V74.4q0.4-3.7,1.2-8.6a93.7,93.7,0,0,1,2.3-10.1,78.2,78.2,0,0,1,3.7-10.2,43.2,43.2,0,0,1,5.3-9,25.8,25.8,0,0,1,7.2-6.4,17.8,17.8,0,0,1,9.3-2.4l2.6,0.3,4.2,0.7,5,1.1,4.9,1.4a27.5,27.5,0,0,1,3.9,1.6A4.9,4.9,0,0,1,59,34.5l-2.1,2.1h-2l-2.9.2-2.9.2-2,.2H46.5l-0.8.2-0.8.2-0.6.2h12l0.3,0.3,0.4,0.4v0.7l-0.3.4-0.3.3a18.3,18.3,0,0,0-4.4.7,23.5,23.5,0,0,0-3.5,1.4l-3.4,1.9-4.1,2.2a9.9,9.9,0,0,1-2.6.8l-2.8.4-2.7.5a6.9,6.9,0,0,0-2.4,1.1,10.5,10.5,0,0,0-3,4.1,36.9,36.9,0,0,0-2.2,6.4q-0.9,3.6-1.6,7.7t-1,7.9Q22.1,79,22,82.2t-0.2,5.3a106.4,106.4,0,0,0,.8,14,43.4,43.4,0,0,0,3.2,11.8,35.7,35.7,0,0,0,6.6,10,46.9,46.9,0,0,0,11.1,8.5,31.9,31.9,0,0,0,5.7,2.6,19.2,19.2,0,0,0,6.2,1,63.3,63.3,0,0,0,9.1-.7l9.2-1.5,9.3-1.5a66.7,66.7,0,0,1,9.3-.7,90.3,90.3,0,0,1,15.6,1.4,124.7,124.7,0,0,1,15.8,3.9,136.1,136.1,0,0,1,15.2,5.8,127.3,127.3,0,0,1,13.7,7.2l2.4,1.5,4.3,2.8,5.2,3.4,5.2,3.4,4.3,2.8,2.4,1.6,1.7,0.9,2.9,1.5,3,1.5,2.2,1a76.9,76.9,0,0,0,14.2,4.7,122.3,122.3,0,0,0,15,2.4q7.6,0.7,15.3.8l14.9-.2,1,0.4,0.9,0.6,0.7,0.8a1.7,1.7,0,0,1,.3,1,3.1,3.1,0,0,1-.7,2,5.9,5.9,0,0,1-1.6,1.4l-2.1,1-2,.6-3.9.8-4.9.9-4.4.8-2.2.3H194.9l15.4,4.2,2.1,0.5,3.2,0.8,3.5,1,3.3,1.2a11.1,11.1,0,0,1,2.4,1.4,1.9,1.9,0,0,1,.3,3.1,5.6,5.6,0,0,1-1.6,1l-1.9.6-1.4.3-2,.2-2.9.2-2.9.2h-2a3.7,3.7,0,0,0,1.1,1l2.1,1.4,2.6,1.5,2.5,1.3,2,0.9,0.9,0.2,0.9,1.1,1.2,1.5,1,1.6a2.9,2.9,0,0,1,.4,1.4,2.1,2.1,0,0,1-.3,1.3,3.2,3.2,0,0,1-1.2.8h-7q-5.6,0-10.6-.4a60.2,60.2,0,0,1-9.8-1.5,48.5,48.5,0,0,1-9.2-3.2,47.4,47.4,0,0,1-8.9-5.5l-1-.8-2-1.6-2.5-2.1-2.7-2.3-2.5-2.1-1.9-1.6-1.4-1.4h-5.6l-1.6.4-2.8.7-3.4.8-3.4.8-2.8.6-1.6.3-5.3.9-4.4.4-4.2.2h-4.8a45.2,45.2,0,0,1-5.6-.3l-5.5-.7-5.5-.7a42.9,42.9,0,0,0-5.4-.3h-0.7a13.8,13.8,0,0,0,3.4,5.4,25,25,0,0,0,5.1,3.8,51,51,0,0,0,5.9,2.9l5.9,2.5a3.2,3.2,0,0,1,1.2.9,2.2,2.2,0,0,1,.3,1.2,1.5,1.5,0,0,1-.5,1.2,3.1,3.1,0,0,1-1.1.7l-1.4.3h-1.3a19.7,19.7,0,0,1-4.4-.5l-4.7-1.1a29.6,29.6,0,0,0,2.8,2.8l2.9,2.5,2.8,2.5a33.3,33.3,0,0,1,2.7,2.7v0.3A1.3,1.3,0,0,1,121.5,225.7ZM29.6,157.7a0.6,0.6,0,0,0-.5.7c0,0.5.2,0.7,0.5,0.7a0.6,0.6,0,0,0,.6-0.7A0.6,0.6,0,0,0,29.6,157.7Zm178.6,56.7q-0.5,0-.5.7a0.6,0.6,0,0,0,.5.7,0.6,0.6,0,0,0,.6-0.7A0.6,0.6,0,0,0,208.2,214.4Z"/></svg>