<svg xmlns="http://www.w3.org/2000/svg" width="256" height="256" viewBox="0 0 256 256"><title>pterosaurs</title><path d="M241.8,248.2a1,1,0,0,1-.1.7l-0.4.8-0.6.7-0.6.3h-0.3a0.5,0.5,0,0,1-.5-0.5,128.4,128.4,0,0,0-7.9-13.7q-4.4-6.6-9.3-12.7t-10.4-11.8q-5.5-5.7-11.3-11.2l-2.9-2.6-4.5-3.9-5.3-4.5-5.3-4.5-4.6-3.8-3.1-2.4a60.8,60.8,0,0,0-13.7-7.8,109.2,109.2,0,0,0-15-5l-3.7-.8-4.6-1-4.9-1.1-4.5-1-3.4-.7-1.6-.3h-6.9l-3,1.5a8,8,0,0,1-3.2.5h-1a2.7,2.7,0,0,1-1.3-.3,1.2,1.2,0,0,1-.5-1.2,2.4,2.4,0,0,1,.1-0.9l0.4-.7,0.5-.7,0.5-.8q-0.2.9,0.3,1H111l1.1-.2,1.6-.4,1.6-.5,1-.3a22.2,22.2,0,0,1,2.2-3.3l2.8-3.6a32.2,32.2,0,0,0,2.4-3.7,7.2,7.2,0,0,0,1-3.5,1.3,1.3,0,0,0-.1-0.8h-0.2a0.4,0.4,0,0,1-.2-0.4,8.3,8.3,0,0,1-.1-1.8H114l-2.5.2-3.9.3-3.9.3-2.6.2a4.7,4.7,0,0,0-2.3.8l-2,1.5-2.1,1.5a4.9,4.9,0,0,1-2.6.7h-1a0.8,0.8,0,0,1-.4-0.8,3.3,3.3,0,0,1,.1-1l0.4-1,0.2,0.8,0.2,0.2h0.8a2.8,2.8,0,0,1,.5-2,3.5,3.5,0,0,1,1.4-.7l2-.6a5.4,5.4,0,0,0,2.2-1.8l-1.5-29.6v-1.8l-0.2-1.2v-0.9a74.3,74.3,0,0,0-3.5-13.6,122.3,122.3,0,0,0-5.5-12.9q-3.1-6.3-6.8-12.4L73.5,54.6l-0.3-.4-0.4-.6L72.3,53,72,52.7,60.1,40.8,20.2,8.2a4,4,0,0,0-1.5-.7l-2-.6L14.9,6a1.6,1.6,0,0,1-.8-1.4,29.3,29.3,0,0,1,6,.7A53.9,53.9,0,0,1,26.4,7l6,2.3,5.5,2.4,2.7,1.2,4.1,1.9,4.8,2.3,4.8,2.3,4.1,1.9,2.7,1.2,2.3,0.9,2.1,1.1,3.3,2,5,3L79.9,33l5.9,3.5,5.1,3,3.3,1.9L95,41.7l1.2,0.6,1.2,0.6,0.7,0.3q4.8,3.2,9.2,6.7t8.5,7.2q4.1,3.7,8.2,7.7l8.1,8.1,1.9,0.7,1.8,0.5,1.7,0.8a5.8,5.8,0,0,1,1.5,1.4,17.9,17.9,0,0,0,.3,5.8,31.7,31.7,0,0,0,1.8,5.6,51.8,51.8,0,0,0,2.6,5.4l2.8,5,1.2,2,1.8,2.9,1.8,2.8,1.1,1.7,1.9,2.4,3,3.8,3.2,3.9,2.3,2.7,1,1,1.5,1.5,1.5,1.5,1,0.9h1a7.1,7.1,0,0,0,3.4-.9l3-1.6a9.8,9.8,0,0,0,3.9-3.7,15.3,15.3,0,0,0,1.7-4.7,40.1,40.1,0,0,0,.6-5.3,38.7,38.7,0,0,1,.7-5.6,24.1,24.1,0,0,1,1.5-4.8l2-4.6,0.4-.8,0.4-.8,0.5-.6,0.9-.2a44,44,0,0,1-.6,7.2,44,44,0,0,0-.6,7.2V107c0,0.3,0,.6,0,0.9s0,0.5,0,.8v0.3q0.1,0.7.2,2.4l0.4,3.6,0.5,3.6,0.3,2.3a3.2,3.2,0,0,1,.5,1.6V124q0,4.2-.2,8.2t-0.2,8.3v3a4.9,4.9,0,0,0,1.6,1.5l1.9,1,2.1,1.1,2.9,1.5,2.8,1.5,1.6,0.9,0.8,0.3,0.7,0.2,0.6-.2,0.9-.3,0.5-.2,0.8-.3,0.8-.3h0.5l1.2,0.2,1.3,0.8a5.6,5.6,0,0,1,1.1,1.1,2,2,0,0,1,.4,1.2,1.6,1.6,0,0,1-.3,1l-0.7.8-0.7.6a0.7,0.7,0,0,0-.3.5v0.3l0.2,0.8,0.3,0.7,10.9,24.7,0.5,1.8a17.3,17.3,0,0,1,.4,1.7l19.3,57.8ZM172,130.6h-1.3l1.7,2.1,2.6,2.8a29.9,29.9,0,0,0,2.7,2.5,4,4,0,0,0,2.2,1.1h0.2a5.5,5.5,0,0,0-.6-2.9,10.9,10.9,0,0,0-1.9-2.7,10.6,10.6,0,0,0-2.7-2A6.1,6.1,0,0,0,172,130.6Zm37.2,22.8a0.5,0.5,0,1,0,.4.5A0.4,0.4,0,0,0,209.2,153.4Z"/></svg>